<svg width="15" height="16" viewBox="0 0 15 16" fill="none" xmlns="http://www.w3.org/2000/svg">
<path d="M10.7502 11.0627L10.2618 11.7953C10.1643 11.9415 10.0354 12.0663 9.86548 12.1112C9.30896 12.2582 7.83148 12.3246 5.58205 10.0752C3.33263 7.82577 3.39902 6.34827 3.54607 5.79174C3.59096 5.62184 3.71573 5.49292 3.86195 5.39544L4.5945 4.90708C5.1399 4.54348 5.28728 3.80658 4.92368 3.26118L3.54013 1.18587C3.22277 0.709815 2.61094 0.527939 2.08506 0.753316L1.46094 1.0208C0.986822 1.22399 0.60007 1.58866 0.369385 2.05003C0.176656 2.43549 0.0272765 2.8414 0.00703714 3.27188C-0.0567452 4.6285 0.240725 7.97078 3.96359 11.6937C7.68646 15.4165 11.0287 15.714 12.3853 15.6502C12.8158 15.63 13.2217 15.4806 13.6072 15.2878C14.0686 15.0572 14.4332 14.6704 14.6364 14.1963L14.9039 13.5722C15.1293 13.0463 14.9474 12.4345 14.4714 12.1171L12.396 10.7336C11.8506 10.3699 11.1138 10.5173 10.7502 11.0627Z" fill="url(#paint0_linear_665_3470)"/>
<defs>
<linearGradient id="paint0_linear_665_3470" x1="7.5" y1="0.657227" x2="7.5" y2="15.6572" gradientUnits="userSpaceOnUse">
<stop stop-color="#E22D58"/>
<stop offset="1" stop-color="#970B86"/>
</linearGradient>
</defs>
</svg>
