<svg width="120" height="31" viewBox="0 0 120 31" fill="none" xmlns="http://www.w3.org/2000/svg">
<path d="M69.0489 8.55392C68.4579 8.35011 67.8872 8.26858 67.3166 8.26858C67.235 8.26858 67.1535 8.26858 67.072 8.28896C67.0924 7.63679 67.0108 6.98462 66.807 6.31207C65.7676 3.21424 62.4456 1.52267 59.9185 0.462891C60.9782 2.27675 61.8546 4.04984 61.5081 6.29169C61.2839 7.7387 60.6929 9.10419 59.9185 10.3678C59.1644 9.10419 58.553 7.7387 58.3288 6.29169C57.9823 4.02946 58.8587 2.25637 59.9185 0.462891C58.6549 0.992782 57.1875 1.68571 55.9035 2.62321C54.6195 3.56071 53.5394 4.76315 53.0095 6.31207C52.7853 6.98462 52.7038 7.63679 52.7445 8.28896C52.663 8.28896 52.5815 8.26858 52.5204 8.26858C51.9497 8.26858 51.3587 8.35011 50.788 8.55392C47.6902 9.59332 45.9986 12.9153 44.9388 15.4425C46.4674 14.5458 47.9755 13.7713 49.769 13.7713C50.0951 13.7713 50.4212 13.7917 50.7676 13.8528C52.2147 14.077 53.5801 14.6681 54.8437 15.4425C53.5801 16.1966 52.2147 16.808 50.7676 17.0322C50.4212 17.0933 50.0951 17.1137 49.769 17.1137C47.9755 17.1137 46.4674 16.3393 44.9388 15.4425C45.4687 16.7061 46.1617 18.1735 47.0992 19.4575C48.0367 20.7414 49.2391 21.8216 50.788 22.3515C51.3791 22.5553 51.9497 22.6368 52.5204 22.6368C52.6019 22.6368 52.6834 22.6368 52.7445 22.6368C52.7242 23.289 52.8057 23.9412 53.0095 24.6137C54.0489 27.7115 57.3709 29.3827 59.8981 30.4629C58.8383 28.6694 57.9416 26.8759 58.3084 24.6341C58.553 23.1871 59.144 21.842 59.8981 20.558C60.6521 21.8216 61.2432 23.1667 61.4878 24.6341C61.8546 26.8759 60.9579 28.6694 59.8981 30.4629C62.4456 29.4031 65.7676 27.7115 66.7867 24.6137C67.0108 23.9412 67.0924 23.289 67.0516 22.6368C67.1331 22.6368 67.2147 22.6368 67.2962 22.6368C67.8668 22.6368 68.4579 22.5553 69.0285 22.3515C72.1263 21.3121 73.7975 17.9901 74.8777 15.4425C73.3492 16.3393 71.841 17.1137 70.0475 17.1137C69.7214 17.1137 69.375 17.0933 69.0285 17.0322C67.5815 16.7876 66.216 16.1966 64.9524 15.4425C65.5842 15.0553 66.2364 14.7292 66.9089 14.4439C67.5815 14.1789 68.2744 13.9547 69.0081 13.8528C69.3546 13.7917 69.7011 13.7713 70.0271 13.7713C71.8206 13.7713 73.3288 14.5458 74.8573 15.4425C73.8383 12.9153 72.1467 9.59332 69.0489 8.55392ZM60.8763 10.9792C61.8138 9.4099 62.3845 7.94251 62.6087 6.4955C62.8125 5.17077 62.6494 4.00908 62.3233 2.92892C63.8519 3.84604 65.197 5.04849 65.7473 6.67893C65.9511 7.26996 65.9918 7.86098 65.9511 8.45201C64.0761 8.85962 62.303 10.0417 60.7948 11.1218C60.8152 11.0607 60.856 11.02 60.8763 10.9792ZM61.9973 13.3637C61.7119 12.9968 61.4266 12.63 61.1617 12.2428C62.5271 11.2441 64.0964 10.1436 65.7065 9.65446C65.2174 11.2645 64.1372 12.8134 63.1182 14.1993C62.731 13.9343 62.3641 13.649 61.9973 13.3637ZM65.6861 21.2509C64.0761 20.7618 62.5068 19.6816 61.1617 18.683C61.447 18.2958 61.7119 17.9289 61.9973 17.5621C62.3641 17.2767 62.731 16.9914 63.1182 16.7265C64.0964 18.0308 65.197 19.6205 65.6861 21.2509ZM54.0896 6.67893C54.6399 5.04849 55.985 3.84604 57.4932 2.92892C57.1467 4.00908 57.0041 5.17077 57.2079 6.4955C57.432 7.94251 58.0027 9.4099 58.9402 10.9792C58.9606 11.02 59.0013 11.0811 59.0217 11.1218C57.5339 10.0417 55.7608 8.85962 53.8655 8.45201C53.8247 7.86098 53.8858 7.24958 54.0896 6.67893ZM54.11 9.67484C55.7201 10.164 57.2894 11.2645 58.6549 12.2631C58.3695 12.6504 58.1046 13.0172 57.8193 13.3841C57.4524 13.6694 57.0856 13.9547 56.6984 14.2197C55.6793 12.8338 54.5992 11.2645 54.11 9.67484ZM57.8193 17.5417C58.1046 17.9085 58.3899 18.2754 58.6752 18.6626C57.3098 19.6613 55.7609 20.7618 54.1508 21.2305C54.6399 19.6001 55.7405 18.0104 56.7187 16.6857C57.0856 16.9914 57.4524 17.2564 57.8193 17.5417ZM50.9307 12.7523C50.5435 12.6911 50.1359 12.6708 49.769 12.6708C48.913 12.6708 48.1182 12.8134 47.3845 13.058C48.3016 11.5295 49.5041 10.1844 51.1345 9.65446C51.5829 9.5118 52.0312 9.43029 52.5204 9.43029C52.6426 9.43029 52.7853 9.43028 52.9076 9.45066C53.3152 11.3257 54.4973 13.0987 55.5774 14.6069C55.5367 14.5865 55.4755 14.5458 55.4348 14.5254C53.8451 13.5471 52.3777 12.9765 50.9307 12.7523ZM52.8872 21.4955C52.7649 21.4955 52.6223 21.5159 52.5 21.5159C52.0312 21.5159 51.5625 21.4344 51.1141 21.2917C49.4837 20.7414 48.2812 19.3963 47.3641 17.8882C48.1182 18.1327 48.8926 18.2754 49.7486 18.2754C50.1358 18.2754 50.5231 18.255 50.9103 18.1939C52.3573 17.9697 53.8247 17.399 55.394 16.4615C55.4348 16.4412 55.4959 16.4004 55.5367 16.38C54.4769 17.827 53.2948 19.6001 52.8872 21.4955ZM58.9402 19.967C58.0027 21.5363 57.4524 22.9833 57.2079 24.4303C57.0041 25.7346 57.1467 26.9167 57.4932 27.9969C55.9646 27.0797 54.6195 25.8773 54.0896 24.2469C53.8858 23.6558 53.8451 23.0648 53.8858 22.4738C55.7608 22.0662 57.5339 20.8841 59.0421 19.7835C59.0013 19.8447 58.9606 19.9058 58.9402 19.967ZM58.6752 16.7876L58.5733 16.6857L57.3505 15.4629L58.5733 14.2197L58.6549 14.1382L59.8981 12.9153L61.1209 14.1382L61.2228 14.2401L62.466 15.4833L61.2432 16.7061L61.1413 16.808L59.9185 18.0308L58.6752 16.7876ZM65.7269 24.2469C65.1766 25.8773 63.8519 27.0797 62.3233 27.9969C62.6698 26.9167 62.8329 25.7346 62.6087 24.4303C62.3641 22.9833 61.8138 21.5159 60.8763 19.967C60.8356 19.9058 60.8152 19.8651 60.7744 19.8039C62.2622 20.8841 64.0353 22.0662 65.9307 22.4738C65.9918 23.0648 65.9307 23.6558 65.7269 24.2469ZM68.8655 18.1531C69.2731 18.2142 69.6603 18.255 70.0679 18.255C70.9239 18.255 71.6983 18.1123 72.4524 17.8678C71.5353 19.3963 70.3329 20.7414 68.7024 21.2713C68.254 21.414 67.8057 21.4955 67.3369 21.4955C67.2146 21.4955 67.072 21.4955 66.9497 21.4751C66.5217 19.5797 65.36 17.8066 64.2595 16.3189C64.3206 16.3596 64.3614 16.38 64.4225 16.4208C65.9714 17.3583 67.4184 17.9289 68.8655 18.1531ZM70.0679 12.6504C69.6807 12.6504 69.2731 12.6911 68.8655 12.7523C67.4184 12.9765 65.9511 13.5471 64.4022 14.4846C64.341 14.5254 64.3003 14.5458 64.2391 14.5865C65.3193 13.0987 66.5013 11.3053 66.9293 9.43029C67.0516 9.43029 67.1943 9.40988 67.3166 9.40988C67.7853 9.40988 68.2541 9.49143 68.682 9.63409C70.3125 10.1844 71.5149 11.5091 72.432 13.0376C71.6983 12.8134 70.9239 12.6504 70.0679 12.6504Z" fill="url(#paint0_linear_633_734)"/>
<path d="M24.11 8.55392C23.519 8.35011 22.9484 8.26858 22.3777 8.26858C22.2962 8.26858 22.2147 8.26858 22.1331 8.28896C22.1535 7.63679 22.072 6.98462 21.8682 6.31207C20.8288 3.21424 17.5068 1.52267 14.9796 0.462891C16.0394 2.27675 16.9158 4.04984 16.5693 6.29169C16.3451 7.7387 15.7541 9.10419 14.9796 10.3678C14.2255 9.10419 13.6141 7.7387 13.3899 6.29169C13.0435 4.02946 13.9198 2.25637 14.9796 0.462891C13.716 0.992782 12.2486 1.68571 10.9647 2.62321C9.6807 3.56071 8.60054 4.76315 8.07064 6.31207C7.84646 6.98462 7.76494 7.63679 7.8057 8.28896C7.72418 8.28896 7.64266 8.26858 7.58152 8.26858C7.01087 8.26858 6.41984 8.35011 5.84919 8.55392C2.75136 9.59332 1.05978 12.9153 0 15.4425C1.52853 14.5458 3.03669 13.7713 4.83016 13.7713C5.15625 13.7713 5.48233 13.7917 5.8288 13.8528C7.27581 14.077 8.6413 14.6681 9.90488 15.4425C8.6413 16.1966 7.27581 16.808 5.8288 17.0322C5.48233 17.0933 5.15625 17.1137 4.83016 17.1137C3.03669 17.1137 1.52853 16.3393 0 15.4425C0.529891 16.7061 1.22282 18.1735 2.16032 19.4575C3.09782 20.7414 4.30027 21.8216 5.84919 22.3515C6.44022 22.5553 7.01087 22.6368 7.58152 22.6368C7.66304 22.6368 7.74456 22.6368 7.8057 22.6368C7.78532 23.289 7.86684 23.9412 8.07064 24.6137C9.11005 27.7115 12.4321 29.3827 14.9592 30.4629C13.8994 28.6694 13.0027 26.8759 13.3696 24.6341C13.6141 23.1871 14.2052 21.842 14.9592 20.558C15.7133 21.8216 16.3043 23.1667 16.5489 24.6341C16.9158 26.8759 16.019 28.6694 14.9592 30.4629C17.5068 29.4031 20.8288 27.7115 21.8478 24.6137C22.072 23.9412 22.1535 23.289 22.1128 22.6368C22.1943 22.6368 22.2758 22.6368 22.3573 22.6368C22.928 22.6368 23.519 22.5553 24.0897 22.3515C27.1875 21.3121 28.8587 17.9901 29.9388 15.4425C28.4103 16.3393 26.9022 17.1137 25.1087 17.1137C24.7826 17.1137 24.4361 17.0933 24.0897 17.0322C22.6427 16.7876 21.2772 16.1966 20.0136 15.4425C20.6454 15.0553 21.2975 14.7292 21.9701 14.4439C22.6427 14.1789 23.3356 13.9547 24.0693 13.8528C24.4157 13.7917 24.7622 13.7713 25.0883 13.7713C26.8818 13.7713 28.3899 14.5458 29.9185 15.4425C28.8994 12.9153 27.2079 9.59332 24.11 8.55392ZM15.9375 10.9792C16.875 9.4099 17.4457 7.94251 17.6698 6.4955C17.8736 5.17077 17.7106 4.00908 17.3845 2.92892C18.913 3.84604 20.2581 5.04849 20.8084 6.67893C21.0122 7.26996 21.053 7.86098 21.0122 8.45201C19.1372 8.85962 17.3641 10.0417 15.856 11.1218C15.8764 11.0607 15.9171 11.02 15.9375 10.9792ZM17.0584 13.3637C16.7731 12.9968 16.4878 12.63 16.2228 12.2428C17.5883 11.2441 19.1576 10.1436 20.7676 9.65446C20.2785 11.2645 19.1984 12.8134 18.1793 14.1993C17.7921 13.9343 17.4253 13.649 17.0584 13.3637ZM20.7473 21.2509C19.1372 20.7618 17.5679 19.6816 16.2228 18.683C16.5081 18.2958 16.7731 17.9289 17.0584 17.5621C17.4253 17.2767 17.7921 16.9914 18.1793 16.7265C19.1576 18.0308 20.2581 19.6205 20.7473 21.2509ZM9.1508 6.67893C9.70108 5.04849 11.0462 3.84604 12.5543 2.92892C12.2079 4.00908 12.0652 5.17077 12.269 6.4955C12.4932 7.94251 13.0639 9.4099 14.0014 10.9792C14.0217 11.02 14.0625 11.0811 14.0829 11.1218C12.5951 10.0417 10.822 8.85962 8.92663 8.45201C8.88586 7.86098 8.947 7.24958 9.1508 6.67893ZM9.17119 9.67484C10.7812 10.164 12.3505 11.2645 13.716 12.2631C13.4307 12.6504 13.1658 13.0172 12.8804 13.3841C12.5136 13.6694 12.1467 13.9547 11.7595 14.2197C10.7405 12.8338 9.66032 11.2645 9.17119 9.67484ZM12.8804 17.5417C13.1658 17.9085 13.4511 18.2754 13.7364 18.6626C12.3709 19.6613 10.822 20.7618 9.21196 21.2305C9.70109 19.6001 10.8016 18.0104 11.7799 16.6857C12.1467 16.9914 12.5136 17.2564 12.8804 17.5417ZM5.99184 12.7523C5.60461 12.6911 5.19701 12.6708 4.83016 12.6708C3.97419 12.6708 3.17935 12.8134 2.44565 13.058C3.36277 11.5295 4.56521 10.1844 6.19564 9.65446C6.64401 9.5118 7.09239 9.43029 7.58152 9.43029C7.7038 9.43029 7.84646 9.43028 7.96874 9.45066C8.37635 11.3257 9.55842 13.0987 10.6386 14.6069C10.5978 14.5865 10.5367 14.5458 10.4959 14.5254C8.90625 13.5471 7.43885 12.9765 5.99184 12.7523ZM7.94837 21.4955C7.82608 21.4955 7.68342 21.5159 7.56113 21.5159C7.09238 21.5159 6.62364 21.4344 6.17527 21.2917C4.54483 20.7414 3.34238 19.3963 2.42526 17.8882C3.17934 18.1327 3.9538 18.2754 4.80978 18.2754C5.197 18.2754 5.58423 18.255 5.97146 18.1939C7.41847 17.9697 8.88586 17.399 10.4552 16.4615C10.4959 16.4412 10.5571 16.4004 10.5978 16.38C9.53804 17.827 8.35598 19.6001 7.94837 21.4955ZM14.0014 19.967C13.0639 21.5363 12.5136 22.9833 12.269 24.4303C12.0652 25.7346 12.2079 26.9167 12.5543 27.9969C11.0258 27.0797 9.6807 25.8773 9.1508 24.2469C8.947 23.6558 8.90624 23.0648 8.947 22.4738C10.822 22.0662 12.5951 20.8841 14.1033 19.7835C14.0625 19.8447 14.0217 19.9058 14.0014 19.967ZM13.7364 16.7876L13.6345 16.6857L12.4117 15.4629L13.6345 14.2197L13.716 14.1382L14.9592 12.9153L16.1821 14.1382L16.284 14.2401L17.5272 15.4833L16.3043 16.7061L16.2024 16.808L14.9796 18.0308L13.7364 16.7876ZM20.788 24.2469C20.2378 25.8773 18.913 27.0797 17.3845 27.9969C17.731 26.9167 17.894 25.7346 17.6698 24.4303C17.4253 22.9833 16.875 21.5159 15.9375 19.967C15.8967 19.9058 15.8764 19.8651 15.8356 19.8039C17.3234 20.8841 19.0965 22.0662 20.9918 22.4738C21.053 23.0648 20.9918 23.6558 20.788 24.2469ZM23.9266 18.1531C24.3342 18.2142 24.7215 18.255 25.1291 18.255C25.985 18.255 26.7595 18.1123 27.5136 17.8678C26.5965 19.3963 25.394 20.7414 23.7636 21.2713C23.3152 21.414 22.8668 21.4955 22.3981 21.4955C22.2758 21.4955 22.1331 21.4955 22.0109 21.4751C21.5829 19.5797 20.4212 17.8066 19.3206 16.3189C19.3818 16.3596 19.4225 16.38 19.4837 16.4208C21.0326 17.3583 22.4796 17.9289 23.9266 18.1531ZM25.1291 12.6504C24.7418 12.6504 24.3342 12.6911 23.9266 12.7523C22.4796 12.9765 21.0122 13.5471 19.4633 14.4846C19.4022 14.5254 19.3614 14.5458 19.3003 14.5865C20.3804 13.0987 21.5625 11.3053 21.9905 9.43029C22.1128 9.43029 22.2554 9.40988 22.3777 9.40988C22.8465 9.40988 23.3152 9.49143 23.7432 9.63409C25.3736 10.1844 26.5761 11.5091 27.4932 13.0376C26.7595 12.8134 25.985 12.6504 25.1291 12.6504Z" fill="url(#paint1_linear_633_734)"/>
<path d="M113.988 8.55392C113.397 8.35011 112.826 8.26858 112.255 8.26858C112.174 8.26858 112.092 8.26858 112.011 8.28896C112.031 7.63679 111.95 6.98462 111.746 6.31207C110.707 3.21424 107.385 1.52267 104.857 0.462891C105.917 2.27675 106.793 4.04984 106.447 6.29169C106.223 7.7387 105.632 9.10419 104.857 10.3678C104.103 9.10419 103.492 7.7387 103.268 6.29169C102.921 4.02946 103.798 2.25637 104.857 0.462891C103.594 0.992782 102.126 1.68571 100.842 2.62321C99.5584 3.56071 98.4783 4.76315 97.9484 6.31207C97.7242 6.98462 97.6427 7.63679 97.6834 8.28896C97.6019 8.28896 97.5204 8.26858 97.4593 8.26858C96.8886 8.26858 96.2976 8.35011 95.7269 8.55392C92.6291 9.59332 90.9375 12.9153 89.8777 15.4425C91.4063 14.5458 92.9144 13.7713 94.7079 13.7713C95.034 13.7713 95.3601 13.7917 95.7065 13.8528C97.1536 14.077 98.519 14.6681 99.7826 15.4425C98.519 16.1966 97.1536 16.808 95.7065 17.0322C95.3601 17.0933 95.034 17.1137 94.7079 17.1137C92.9144 17.1137 91.4063 16.3393 89.8777 15.4425C90.4076 16.7061 91.1006 18.1735 92.0381 19.4575C92.9756 20.7414 94.178 21.8216 95.7269 22.3515C96.318 22.5553 96.8886 22.6368 97.4593 22.6368C97.5408 22.6368 97.6223 22.6368 97.6834 22.6368C97.6631 23.289 97.7446 23.9412 97.9484 24.6137C98.9878 27.7115 102.31 29.3827 104.837 30.4629C103.777 28.6694 102.88 26.8759 103.247 24.6341C103.492 23.1871 104.083 21.842 104.837 20.558C105.591 21.8216 106.182 23.1667 106.427 24.6341C106.794 26.8759 105.897 28.6694 104.837 30.4629C107.385 29.4031 110.707 27.7115 111.726 24.6137C111.95 23.9412 112.031 23.289 111.991 22.6368C112.072 22.6368 112.154 22.6368 112.235 22.6368C112.806 22.6368 113.397 22.5553 113.967 22.3515C117.065 21.3121 118.736 17.9901 119.817 15.4425C118.288 16.3393 116.78 17.1137 114.986 17.1137C114.66 17.1137 114.314 17.0933 113.967 17.0322C112.52 16.7876 111.155 16.1966 109.891 15.4425C110.523 15.0553 111.175 14.7292 111.848 14.4439C112.52 14.1789 113.213 13.9547 113.947 13.8528C114.293 13.7917 114.64 13.7713 114.966 13.7713C116.76 13.7713 118.268 14.5458 119.796 15.4425C118.777 12.9153 117.086 9.59332 113.988 8.55392ZM105.815 10.9792C106.753 9.4099 107.323 7.94251 107.548 6.4955C107.751 5.17077 107.588 4.00908 107.262 2.92892C108.791 3.84604 110.136 5.04849 110.686 6.67893C110.89 7.26996 110.931 7.86098 110.89 8.45201C109.015 8.85962 107.242 10.0417 105.734 11.1218C105.754 11.0607 105.795 11.02 105.815 10.9792ZM106.936 13.3637C106.651 12.9968 106.366 12.63 106.101 12.2428C107.466 11.2441 109.035 10.1436 110.645 9.65446C110.156 11.2645 109.076 12.8134 108.057 14.1993C107.67 13.9343 107.303 13.649 106.936 13.3637ZM110.625 21.2509C109.015 20.7618 107.446 19.6816 106.101 18.683C106.386 18.2958 106.651 17.9289 106.936 17.5621C107.303 17.2767 107.67 16.9914 108.057 16.7265C109.035 18.0308 110.136 19.6205 110.625 21.2509ZM99.0286 6.67893C99.5788 5.04849 100.924 3.84604 102.432 2.92892C102.086 4.00908 101.943 5.17077 102.147 6.4955C102.371 7.94251 102.942 9.4099 103.879 10.9792C103.899 11.02 103.94 11.0811 103.961 11.1218C102.473 10.0417 100.7 8.85962 98.8044 8.45201C98.7636 7.86098 98.8247 7.24958 99.0286 6.67893ZM99.0489 9.67484C100.659 10.164 102.228 11.2645 103.594 12.2631C103.308 12.6504 103.044 13.0172 102.758 13.3841C102.391 13.6694 102.024 13.9547 101.637 14.2197C100.618 12.8338 99.5381 11.2645 99.0489 9.67484ZM102.758 17.5417C103.044 17.9085 103.329 18.2754 103.614 18.6626C102.249 19.6613 100.7 20.7618 99.0897 21.2305C99.5788 19.6001 100.679 18.0104 101.658 16.6857C102.024 16.9914 102.391 17.2564 102.758 17.5417ZM95.8696 12.7523C95.4824 12.6911 95.0748 12.6708 94.7079 12.6708C93.8519 12.6708 93.0571 12.8134 92.3234 13.058C93.2405 11.5295 94.443 10.1844 96.0734 9.65446C96.5218 9.5118 96.9701 9.43029 97.4593 9.43029C97.5816 9.43029 97.7242 9.43028 97.8465 9.45066C98.2541 11.3257 99.4362 13.0987 100.516 14.6069C100.476 14.5865 100.414 14.5458 100.374 14.5254C98.784 13.5471 97.3166 12.9765 95.8696 12.7523ZM97.8261 21.4955C97.7038 21.4955 97.5612 21.5159 97.4389 21.5159C96.9701 21.5159 96.5014 21.4344 96.053 21.2917C94.4226 20.7414 93.2201 19.3963 92.303 17.8882C93.0571 18.1327 93.8315 18.2754 94.6875 18.2754C95.0748 18.2754 95.462 18.255 95.8492 18.1939C97.2962 17.9697 98.7636 17.399 100.333 16.4615C100.374 16.4412 100.435 16.4004 100.476 16.38C99.4158 17.827 98.2337 19.6001 97.8261 21.4955ZM103.879 19.967C102.942 21.5363 102.391 22.9833 102.147 24.4303C101.943 25.7346 102.086 26.9167 102.432 27.9969C100.904 27.0797 99.5584 25.8773 99.0286 24.2469C98.8247 23.6558 98.784 23.0648 98.8247 22.4738C100.7 22.0662 102.473 20.8841 103.981 19.7835C103.94 19.8447 103.899 19.9058 103.879 19.967ZM103.614 16.7876L103.512 16.6857L102.289 15.4629L103.512 14.2197L103.594 14.1382L104.837 12.9153L106.06 14.1382L106.162 14.2401L107.405 15.4833L106.182 16.7061L106.08 16.808L104.857 18.0308L103.614 16.7876ZM110.666 24.2469C110.116 25.8773 108.791 27.0797 107.262 27.9969C107.609 26.9167 107.772 25.7346 107.548 24.4303C107.303 22.9833 106.753 21.5159 105.815 19.967C105.774 19.9058 105.754 19.8651 105.713 19.8039C107.201 20.8841 108.974 22.0662 110.87 22.4738C110.931 23.0648 110.87 23.6558 110.666 24.2469ZM113.804 18.1531C114.212 18.2142 114.599 18.255 115.007 18.255C115.863 18.255 116.637 18.1123 117.391 17.8678C116.474 19.3963 115.272 20.7414 113.641 21.2713C113.193 21.414 112.745 21.4955 112.276 21.4955C112.154 21.4955 112.011 21.4955 111.889 21.4751C111.461 19.5797 110.299 17.8066 109.198 16.3189C109.26 16.3596 109.3 16.38 109.361 16.4208C110.91 17.3583 112.357 17.9289 113.804 18.1531ZM115.007 12.6504C114.62 12.6504 114.212 12.6911 113.804 12.7523C112.357 12.9765 110.89 13.5471 109.341 14.4846C109.28 14.5254 109.239 14.5458 109.178 14.5865C110.258 13.0987 111.44 11.3053 111.868 9.43029C111.991 9.43029 112.133 9.40988 112.255 9.40988C112.724 9.40988 113.193 9.49143 113.621 9.63409C115.251 10.1844 116.454 11.5091 117.371 13.0376C116.637 12.8134 115.863 12.6504 115.007 12.6504Z" fill="url(#paint2_linear_633_734)"/>
<defs>
<linearGradient id="paint0_linear_633_734" x1="59.9083" y1="0.462891" x2="59.9083" y2="30.4629" gradientUnits="userSpaceOnUse">
<stop stop-color="#E22D58"/>
<stop offset="1" stop-color="#970B86"/>
</linearGradient>
<linearGradient id="paint1_linear_633_734" x1="14.9694" y1="0.462891" x2="14.9694" y2="30.4629" gradientUnits="userSpaceOnUse">
<stop stop-color="#E22D58"/>
<stop offset="1" stop-color="#970B86"/>
</linearGradient>
<linearGradient id="paint2_linear_633_734" x1="104.847" y1="0.462891" x2="104.847" y2="30.4629" gradientUnits="userSpaceOnUse">
<stop stop-color="#E22D58"/>
<stop offset="1" stop-color="#970B86"/>
</linearGradient>
</defs>
</svg>
