<svg width="30" height="29" viewBox="0 0 30 29" fill="none" xmlns="http://www.w3.org/2000/svg">
<path fill-rule="evenodd" clip-rule="evenodd" d="M2 14.5C2 7.3203 7.8203 1.5 15 1.5C22.1764 1.5 28 7.41088 28 14.5C28 18.8921 26.051 21.6374 25.0645 22.7471C24.7893 23.0566 24.8171 23.5307 25.1267 23.8059C25.4363 24.0811 25.9103 24.0533 26.1855 23.7437C27.3325 22.4535 29.5 19.3685 29.5 14.5C29.5 6.58912 23.0115 0 15 0C6.99187 0 0.5 6.49187 0.5 14.5C0.5 22.5115 7.08912 29 15 29C18.9426 29 21.2703 27.5085 22.3031 25.6448C22.8094 24.7312 22.9852 23.7544 22.8862 22.8912C22.8189 22.3039 22.6177 21.7319 22.2724 21.2795L22.3959 20.9912C22.6401 20.4215 22.443 19.7587 21.9273 19.4149L19.679 17.916C19.0882 17.5221 18.2899 17.6818 17.896 18.2726L17.3669 19.0662C17.2613 19.2246 17.1217 19.3598 16.9376 19.4084C16.3347 19.5677 14.7341 19.6397 12.2972 17.2028C9.86035 14.7659 9.93227 13.1653 10.0916 12.5624C10.1402 12.3783 10.2754 12.2387 10.4338 12.1331L11.2274 11.604C11.8182 11.2101 11.9779 10.4118 11.584 9.82095L10.0851 7.57269C9.74133 7.05697 9.07852 6.85994 8.50882 7.1041L7.83269 7.39387C7.31906 7.614 6.90008 8.00905 6.65017 8.50887C6.44138 8.92645 6.27955 9.36619 6.25762 9.83254C6.18853 11.3022 6.51079 14.923 10.5439 18.9561C14.577 22.9892 18.1978 23.3115 19.6675 23.2424C20.1338 23.2204 20.5735 23.0586 20.9911 22.8498C21.1037 22.7936 21.2109 22.7287 21.3121 22.6561C21.3498 22.7768 21.3788 22.9121 21.396 23.0619C21.4582 23.605 21.3507 24.2688 20.9911 24.9177C20.2922 26.179 18.5574 27.5 15 27.5C7.91088 27.5 2 21.6764 2 14.5ZM14.25 5.75C14.25 5.33579 14.5858 5 15 5C20.2467 5 24.5 9.25329 24.5 14.5C24.5 14.9142 24.1642 15.25 23.75 15.25C23.3358 15.25 23 14.9142 23 14.5C23 10.0817 19.4183 6.5 15 6.5C14.5858 6.5 14.25 6.16421 14.25 5.75ZM15 8.75C14.5858 8.75 14.25 9.08579 14.25 9.5C14.25 9.91421 14.5858 10.25 15 10.25C17.3472 10.25 19.25 12.1528 19.25 14.5C19.25 14.9142 19.5858 15.25 20 15.25C20.4142 15.25 20.75 14.9142 20.75 14.5C20.75 11.3244 18.1756 8.75 15 8.75Z" fill="white"/>
</svg>
