<svg width="282" height="64" viewBox="0 0 282 64" fill="none" xmlns="http://www.w3.org/2000/svg">
<path d="M4.24232 33.0266H11.2703C12.521 33.0266 13.5757 32.8679 14.4343 32.5506C15.293 32.2146 15.9837 31.7853 16.5063 31.2626C17.029 30.7399 17.4023 30.1519 17.6263 29.4986C17.869 28.8266 17.9903 28.1546 17.9903 27.4826C17.9903 26.4186 17.757 25.5693 17.2903 24.9346C16.8423 24.2999 16.301 23.8146 15.6663 23.4786C15.0317 23.1426 14.3783 22.9186 13.7063 22.8066C13.0343 22.6946 12.493 22.6293 12.0823 22.6106V22.4986C12.7357 22.4986 13.3517 22.3773 13.9303 22.1346C14.509 21.8733 15.013 21.5466 15.4423 21.1546C15.8903 20.7439 16.245 20.2773 16.5063 19.7546C16.7677 19.2133 16.8983 18.6439 16.8983 18.0466C16.8983 17.5239 16.7863 16.9919 16.5623 16.4506C16.3383 15.9093 15.993 15.4146 15.5263 14.9666C15.0783 14.5186 14.4903 14.1546 13.7623 13.8746C13.053 13.5759 12.213 13.4266 11.2423 13.4266H4.24232V33.0266ZM6.79032 31.7946V23.2266H9.87032C10.785 23.2266 11.5783 23.3479 12.2503 23.5906C12.9223 23.8333 13.473 24.1599 13.9023 24.5706C14.3503 24.9813 14.677 25.4573 14.8823 25.9986C15.1063 26.5399 15.2183 27.1093 15.2183 27.7066C15.2183 28.3599 15.097 28.9386 14.8543 29.4426C14.6303 29.9466 14.3223 30.3759 13.9303 30.7306C13.5383 31.0853 13.0717 31.3559 12.5303 31.5426C12.0077 31.7106 11.4477 31.7946 10.8503 31.7946H6.79032ZM6.79032 21.9946V14.6586H10.2063C10.9343 14.6586 11.5503 14.7613 12.0543 14.9666C12.577 15.1719 12.997 15.4426 13.3143 15.7786C13.6503 16.1146 13.893 16.4973 14.0423 16.9266C14.1917 17.3559 14.2663 17.7853 14.2663 18.2146C14.2663 18.7559 14.1543 19.2599 13.9303 19.7266C13.725 20.1933 13.4263 20.5946 13.0343 20.9306C12.661 21.2666 12.2223 21.5279 11.7183 21.7146C11.233 21.9013 10.7103 21.9946 10.1503 21.9946H6.79032ZM22.754 13.4266V33.0266H35.41V31.4866H25.302V23.2826H33.982V21.9946H25.302V14.9666H35.41V13.4266H22.754ZM39.5978 33.0266V13.4266H42.1458V31.4866H52.2538V33.0266H39.5978ZM56.4415 33.0266V13.4266H58.9895V31.4866H69.0975V33.0266H56.4415ZM67.9762 13.4266L74.7522 25.6066V33.0266H77.3002V25.3546L84.1882 13.4266H82.6762L76.6842 23.7586H76.5722L70.8602 13.4266H67.9762ZM154.578 28.0706C154.616 28.8733 154.821 29.6013 155.194 30.2546C155.586 30.9079 156.109 31.4679 156.762 31.9346C157.434 32.3826 158.218 32.7373 159.114 32.9986C160.01 33.2413 160.99 33.3626 162.054 33.3626C163.137 33.3626 164.108 33.2319 164.966 32.9706C165.844 32.7093 166.59 32.3359 167.206 31.8506C167.822 31.3653 168.298 30.7773 168.634 30.0866C168.97 29.3959 169.138 28.6306 169.138 27.7906C169.138 26.6333 168.849 25.6906 168.27 24.9626C167.692 24.2159 166.964 23.5999 166.086 23.1146C165.228 22.6106 164.285 22.1906 163.258 21.8546C162.25 21.5186 161.308 21.1639 160.43 20.7906C159.572 20.4173 158.853 19.9879 158.274 19.5026C157.696 19.0173 157.406 18.3733 157.406 17.5706C157.406 17.1226 157.5 16.7026 157.686 16.3106C157.892 15.9186 158.181 15.5826 158.554 15.3026C158.946 15.0039 159.422 14.7706 159.982 14.6026C160.542 14.4159 161.186 14.3226 161.914 14.3226C163.128 14.3226 164.154 14.5839 164.994 15.1066C165.853 15.6106 166.357 16.4133 166.506 17.5146H168.41C168.298 16.8239 168.046 16.2079 167.654 15.6666C167.262 15.1066 166.768 14.6399 166.17 14.2666C165.573 13.8746 164.892 13.5853 164.126 13.3986C163.38 13.1933 162.596 13.0906 161.774 13.0906C160.916 13.0906 160.094 13.2026 159.31 13.4266C158.545 13.6506 157.864 13.9773 157.266 14.4066C156.688 14.8359 156.221 15.3773 155.866 16.0306C155.53 16.6839 155.362 17.4306 155.362 18.2706C155.362 19.3719 155.642 20.2586 156.202 20.9306C156.762 21.6026 157.462 22.1626 158.302 22.6106C159.161 23.0586 160.085 23.4413 161.074 23.7586C162.064 24.0759 162.978 24.4399 163.818 24.8506C164.677 25.2426 165.386 25.7279 165.946 26.3066C166.506 26.8853 166.786 27.6599 166.786 28.6306C166.786 29.8439 166.338 30.7306 165.442 31.2906C164.565 31.8506 163.389 32.1306 161.914 32.1306C160.738 32.1306 159.796 31.9813 159.086 31.6826C158.377 31.3653 157.836 30.9919 157.462 30.5626C157.089 30.1333 156.837 29.6946 156.706 29.2466C156.576 28.7799 156.501 28.3879 156.482 28.0706H154.578ZM190.894 29.4146C188.99 31.2066 186.732 32.1026 184.118 32.1026C182.662 32.1026 181.374 31.8506 180.254 31.3466C179.134 30.8426 178.201 30.1706 177.454 29.3306C176.708 28.4906 176.138 27.5199 175.746 26.4186C175.373 25.3173 175.186 24.1693 175.186 22.9746C175.186 21.7053 175.382 20.5479 175.774 19.5026C176.185 18.4386 176.754 17.5239 177.482 16.7586C178.21 15.9933 179.069 15.3959 180.058 14.9666C181.066 14.5373 182.158 14.3226 183.334 14.3226C184.137 14.3226 184.865 14.4159 185.518 14.6026C186.19 14.7893 186.778 15.0319 187.282 15.3306C187.805 15.6293 188.225 15.9746 188.542 16.3666C188.878 16.7399 189.112 17.1226 189.242 17.5146H191.314C191.034 16.8799 190.67 16.2919 190.222 15.7506C189.793 15.2093 189.252 14.7426 188.598 14.3506C187.945 13.9586 187.18 13.6506 186.302 13.4266C185.425 13.2026 184.426 13.0906 183.306 13.0906C181.682 13.0906 180.198 13.3239 178.854 13.7906C177.529 14.2573 176.39 14.9293 175.438 15.8066C174.486 16.6653 173.749 17.7106 173.226 18.9426C172.704 20.1559 172.442 21.5186 172.442 23.0306C172.442 24.3373 172.648 25.6159 173.058 26.8666C173.488 28.0986 174.141 29.1999 175.018 30.1706C175.896 31.1226 177.016 31.8973 178.378 32.4946C179.741 33.0733 181.365 33.3626 183.25 33.3626C184.445 33.3626 185.509 33.2506 186.442 33.0266C187.394 32.8026 188.216 32.5319 188.906 32.2146C189.616 31.8786 190.204 31.5239 190.67 31.1506C191.137 30.7773 191.492 30.4506 191.734 30.1706L190.894 29.4146ZM198.197 23.2826H209.929V33.0266H212.477V13.4266H209.929V21.9946H198.197V13.4266H195.649V33.0266H198.197V23.2826ZM217.232 23.2266C217.232 24.2719 217.428 25.3919 217.82 26.5866C218.23 27.7626 218.865 28.8546 219.724 29.8626C220.582 30.8706 221.674 31.7106 223 32.3826C224.325 33.0359 225.912 33.3626 227.76 33.3626C229.01 33.3626 230.14 33.2133 231.148 32.9146C232.174 32.5973 233.089 32.1773 233.892 31.6546C234.713 31.1319 235.422 30.5346 236.02 29.8626C236.617 29.1719 237.102 28.4533 237.476 27.7066C237.868 26.9413 238.157 26.1759 238.344 25.4106C238.549 24.6453 238.652 23.9173 238.652 23.2266C238.652 22.1813 238.437 21.0706 238.008 19.8946C237.578 18.6999 236.916 17.5986 236.02 16.5906C235.124 15.5826 233.985 14.7519 232.604 14.0986C231.241 13.4266 229.626 13.0906 227.76 13.0906C225.912 13.0906 224.325 13.4173 223 14.0706C221.674 14.7239 220.582 15.5546 219.724 16.5626C218.865 17.5519 218.23 18.6439 217.82 19.8386C217.428 21.0333 217.232 22.1626 217.232 23.2266ZM219.976 23.2266C219.976 21.9199 220.172 20.7253 220.564 19.6426C220.974 18.5413 221.525 17.5986 222.216 16.8146C222.925 16.0306 223.756 15.4239 224.708 14.9946C225.66 14.5466 226.696 14.3226 227.816 14.3226C228.917 14.3226 229.953 14.5466 230.924 14.9946C231.913 15.4239 232.772 16.0306 233.5 16.8146C234.246 17.5986 234.834 18.5413 235.264 19.6426C235.693 20.7253 235.908 21.9199 235.908 23.2266C235.908 24.5333 235.693 25.7373 235.264 26.8386C234.834 27.9213 234.246 28.8546 233.5 29.6386C232.772 30.4226 231.913 31.0386 230.924 31.4866C229.953 31.9159 228.917 32.1306 227.816 32.1306C226.696 32.1306 225.66 31.9159 224.708 31.4866C223.756 31.0386 222.925 30.4226 222.216 29.6386C221.525 28.8546 220.974 27.9213 220.564 26.8386C220.172 25.7373 219.976 24.5333 219.976 23.2266ZM241.458 23.2266C241.458 24.2719 241.654 25.3919 242.046 26.5866C242.457 27.7626 243.091 28.8546 243.95 29.8626C244.809 30.8706 245.901 31.7106 247.226 32.3826C248.551 33.0359 250.138 33.3626 251.986 33.3626C253.237 33.3626 254.366 33.2133 255.374 32.9146C256.401 32.5973 257.315 32.1773 258.118 31.6546C258.939 31.1319 259.649 30.5346 260.246 29.8626C260.843 29.1719 261.329 28.4533 261.702 27.7066C262.094 26.9413 262.383 26.1759 262.57 25.4106C262.775 24.6453 262.878 23.9173 262.878 23.2266C262.878 22.1813 262.663 21.0706 262.234 19.8946C261.805 18.6999 261.142 17.5986 260.246 16.5906C259.35 15.5826 258.211 14.7519 256.83 14.0986C255.467 13.4266 253.853 13.0906 251.986 13.0906C250.138 13.0906 248.551 13.4173 247.226 14.0706C245.901 14.7239 244.809 15.5546 243.95 16.5626C243.091 17.5519 242.457 18.6439 242.046 19.8386C241.654 21.0333 241.458 22.1626 241.458 23.2266ZM244.202 23.2266C244.202 21.9199 244.398 20.7253 244.79 19.6426C245.201 18.5413 245.751 17.5986 246.442 16.8146C247.151 16.0306 247.982 15.4239 248.934 14.9946C249.886 14.5466 250.922 14.3226 252.042 14.3226C253.143 14.3226 254.179 14.5466 255.15 14.9946C256.139 15.4239 256.998 16.0306 257.726 16.8146C258.473 17.5986 259.061 18.5413 259.49 19.6426C259.919 20.7253 260.134 21.9199 260.134 23.2266C260.134 24.5333 259.919 25.7373 259.49 26.8386C259.061 27.9213 258.473 28.8546 257.726 29.6386C256.998 30.4226 256.139 31.0386 255.15 31.4866C254.179 31.9159 253.143 32.1306 252.042 32.1306C250.922 32.1306 249.886 31.9159 248.934 31.4866C247.982 31.0386 247.151 30.4226 246.442 29.6386C245.751 28.8546 245.201 27.9213 244.79 26.8386C244.398 25.7373 244.202 24.5333 244.202 23.2266ZM267.645 33.0266V13.4266H270.193V31.4866H280.301V33.0266H267.645Z" fill="white"/>
<path opacity="0.5" d="M9.098 61.8895L8.253 59.6535H3.937L3.092 61.8895H2.13L5.627 52.7895H6.563L10.06 61.8895H9.098ZM4.262 58.7955H7.928L6.095 53.9205L4.262 58.7955ZM27.6085 61.8895H26.4125L22.1485 57.4825V61.8895H21.2385V52.7895H22.1485V56.9495L26.2825 52.7895H27.4785L23.1105 57.2095L27.6085 61.8895ZM44.9744 61.8895L44.1294 59.6535H39.8134L38.9684 61.8895H38.0064L41.5034 52.7895H42.4394L45.9364 61.8895H44.9744ZM40.1384 58.7955H43.8044L41.9714 53.9205L40.1384 58.7955ZM63.6149 61.0315H64.5899V63.6315H63.6799V61.8895H57.1799V63.6315H56.2699V61.0315H57.0109C57.6089 60.3295 57.9079 59.2461 57.9079 57.7815V52.7895H63.6149V61.0315ZM58.0899 61.0315H62.7049V53.6475H58.8179V57.8075C58.8179 59.2461 58.5753 60.3208 58.0899 61.0315ZM77.0105 61.0315H81.4305V61.8895H76.1005V52.7895H81.3655V53.6475H77.0105V56.8715H81.0405V57.7295H77.0105V61.0315ZM101.324 52.7895V61.8895H100.414V54.1675L97.2291 59.4975H97.0991L93.9141 54.1675V61.8895H93.0041V52.7895H94.1351L97.1641 57.8595L100.193 52.7895H101.324ZM119.262 61.8895V54.4795L114.192 61.8895H113.412V52.7895H114.322V60.1995L119.392 52.7895H120.172V61.8895H119.262ZM138.237 52.7895V61.8895H137.327V58.2495H135.143L132.647 61.8895H131.607L134.142 58.2105C133.492 58.0978 132.951 57.7901 132.517 57.2875C132.084 56.7761 131.867 56.1868 131.867 55.5195C131.867 54.7655 132.132 54.1241 132.66 53.5955C133.198 53.0581 133.843 52.7895 134.597 52.7895H138.237ZM134.597 57.3915H137.327V53.6475H134.597C134.095 53.6475 133.666 53.8295 133.31 54.1935C132.955 54.5575 132.777 54.9995 132.777 55.5195C132.777 56.0308 132.955 56.4728 133.31 56.8455C133.666 57.2095 134.095 57.3915 134.597 57.3915ZM169.959 61.8895H168.763L164.499 57.4825V61.8895H163.589V52.7895H164.499V56.9495L168.633 52.7895H169.829L165.461 57.2095L169.959 61.8895ZM184.39 52.7895C185.205 52.7895 185.885 53.0625 186.431 53.6085C186.977 54.1545 187.25 54.8348 187.25 55.6495C187.25 56.4641 186.977 57.1445 186.431 57.6905C185.885 58.2365 185.205 58.5095 184.39 58.5095H182.05V61.8895H181.14V52.7895H184.39ZM184.39 57.6515C184.953 57.6515 185.417 57.4651 185.781 57.0925C186.154 56.7111 186.34 56.2301 186.34 55.6495C186.34 55.0688 186.154 54.5921 185.781 54.2195C185.417 53.8381 184.953 53.6475 184.39 53.6475H182.05V57.6515H184.39ZM203.962 61.8895L203.117 59.6535H198.801L197.956 61.8895H196.994L200.491 52.7895H201.427L204.924 61.8895H203.962ZM199.126 58.7955H202.792L200.959 53.9205L199.126 58.7955ZM220.023 62.0455C218.645 62.0455 217.506 61.5905 216.604 60.6805C215.703 59.7705 215.252 58.6568 215.252 57.3395C215.252 56.0221 215.703 54.9085 216.604 53.9985C217.506 53.0885 218.645 52.6335 220.023 52.6335C220.864 52.6335 221.635 52.8371 222.337 53.2445C223.039 53.6431 223.581 54.1848 223.962 54.8695L223.156 55.3375C222.87 54.7828 222.446 54.3408 221.882 54.0115C221.319 53.6821 220.699 53.5175 220.023 53.5175C218.888 53.5175 217.961 53.8858 217.241 54.6225C216.522 55.3591 216.162 56.2648 216.162 57.3395C216.162 58.4141 216.522 59.3198 217.241 60.0565C217.961 60.7931 218.888 61.1615 220.023 61.1615C220.699 61.1615 221.319 60.9968 221.882 60.6675C222.446 60.3381 222.87 59.8961 223.156 59.3415L223.962 59.7965C223.59 60.4811 223.048 61.0271 222.337 61.4345C221.635 61.8418 220.864 62.0455 220.023 62.0455ZM242.996 60.6805C242.086 61.5905 240.972 62.0455 239.655 62.0455C238.337 62.0455 237.224 61.5905 236.314 60.6805C235.404 59.7618 234.949 58.6481 234.949 57.3395C234.949 56.0308 235.404 54.9215 236.314 54.0115C237.224 53.0928 238.337 52.6335 239.655 52.6335C240.972 52.6335 242.086 53.0928 242.996 54.0115C243.906 54.9215 244.361 56.0308 244.361 57.3395C244.361 58.6481 243.906 59.7618 242.996 60.6805ZM236.951 60.0565C237.679 60.7931 238.58 61.1615 239.655 61.1615C240.729 61.1615 241.631 60.7931 242.359 60.0565C243.087 59.3111 243.451 58.4055 243.451 57.3395C243.451 56.2735 243.087 55.3721 242.359 54.6355C241.631 53.8901 240.729 53.5175 239.655 53.5175C238.58 53.5175 237.679 53.8901 236.951 54.6355C236.223 55.3721 235.859 56.2735 235.859 57.3395C235.859 58.4055 236.223 59.3111 236.951 60.0565ZM261.127 52.7895V53.6475H258.332V61.8895H257.422V53.6475H254.627V52.7895H261.127ZM272.437 61.8895V52.7895H273.347V56.1695H275.687C276.502 56.1695 277.182 56.4425 277.728 56.9885C278.274 57.5345 278.547 58.2148 278.547 59.0295C278.547 59.8441 278.274 60.5245 277.728 61.0705C277.182 61.6165 276.502 61.8895 275.687 61.8895H272.437ZM279.522 61.8895V52.7895H280.432V61.8895H279.522ZM273.347 61.0315H275.687C276.25 61.0315 276.714 60.8451 277.078 60.4725C277.451 60.0911 277.637 59.6101 277.637 59.0295C277.637 58.4488 277.451 57.9721 277.078 57.5995C276.714 57.2181 276.25 57.0275 275.687 57.0275H273.347V61.0315Z" fill="white"/>
<path d="M133.473 11.837C132.608 11.5389 131.773 11.4196 130.938 11.4196C130.819 11.4196 130.7 11.4196 130.58 11.4494C130.61 10.4953 130.491 9.54118 130.193 8.55724C128.672 4.02518 123.812 1.55044 120.115 0C121.665 2.65364 122.947 5.24765 122.441 8.52743C122.113 10.6444 121.248 12.6421 120.115 14.4907C119.012 12.6421 118.117 10.6444 117.789 8.52743C117.282 5.21783 118.564 2.62383 120.115 0C118.266 0.775222 116.119 1.78897 114.241 3.16051C112.363 4.53206 110.782 6.29121 110.007 8.55724C109.679 9.54118 109.56 10.4953 109.62 11.4494C109.5 11.4494 109.381 11.4196 109.292 11.4196C108.457 11.4196 107.592 11.5389 106.757 11.837C102.225 13.3577 99.7504 18.2177 98.2 21.9149C100.436 20.603 102.643 19.47 105.266 19.47C105.743 19.47 106.221 19.4998 106.727 19.5892C108.844 19.9172 110.842 20.7819 112.691 21.9149C110.842 23.0181 108.844 23.9126 106.727 24.2406C106.221 24.33 105.743 24.3598 105.266 24.3598C102.643 24.3598 100.436 23.2268 98.2 21.9149C98.9752 23.7635 99.9889 25.9103 101.36 27.7887C102.732 29.6671 104.491 31.2474 106.757 32.0226C107.622 32.3208 108.457 32.44 109.292 32.44C109.411 32.44 109.53 32.44 109.62 32.44C109.59 33.3941 109.709 34.3483 110.007 35.3322C111.528 39.8643 116.388 42.3092 120.085 43.8895C118.535 41.2656 117.223 38.6418 117.759 35.362C118.117 33.2451 118.982 31.2772 120.085 29.3988C121.188 31.2474 122.053 33.2153 122.411 35.362C122.947 38.6418 121.635 41.2656 120.085 43.8895C123.812 42.339 128.672 39.8643 130.163 35.3322C130.491 34.3483 130.61 33.3941 130.551 32.44C130.67 32.44 130.789 32.44 130.908 32.44C131.743 32.44 132.608 32.3208 133.443 32.0226C137.975 30.502 140.42 25.6419 142 21.9149C139.764 23.2268 137.557 24.3598 134.934 24.3598C134.456 24.3598 133.95 24.33 133.443 24.2406C131.326 23.8828 129.328 23.0181 127.479 21.9149C128.404 21.3484 129.358 20.8713 130.342 20.4539C131.326 20.0663 132.34 19.7383 133.413 19.5892C133.92 19.4998 134.427 19.47 134.904 19.47C137.528 19.47 139.734 20.603 141.97 21.9149C140.479 18.2177 138.005 13.3577 133.473 11.837ZM121.516 15.3852C122.888 13.0893 123.723 10.9425 124.051 8.82559C124.349 6.88754 124.11 5.18801 123.633 3.60776C125.869 4.94949 127.837 6.70865 128.642 9.09395C128.94 9.95862 129 10.8233 128.94 11.6879C126.197 12.2843 123.603 14.0136 121.397 15.5939C121.427 15.5044 121.486 15.4448 121.516 15.3852ZM123.156 18.8736C122.739 18.337 122.321 17.8003 121.934 17.2338C123.931 15.7728 126.227 14.1627 128.583 13.4471C127.867 15.8026 126.287 18.0686 124.796 20.0961C124.23 19.7085 123.693 19.2911 123.156 18.8736ZM128.553 30.4125C126.197 29.697 123.902 28.1167 121.934 26.6557C122.351 26.0892 122.739 25.5525 123.156 25.0158C123.693 24.5984 124.23 24.1809 124.796 23.7933C126.227 25.7016 127.837 28.0272 128.553 30.4125ZM111.587 9.09395C112.392 6.70865 114.36 4.94949 116.567 3.60776C116.06 5.18801 115.851 6.88754 116.149 8.82559C116.477 10.9425 117.312 13.0893 118.684 15.3852C118.714 15.4448 118.773 15.5342 118.803 15.5939C116.626 14.0136 114.032 12.2843 111.259 11.6879C111.2 10.8233 111.289 9.9288 111.587 9.09395ZM111.617 13.4769C113.973 14.1925 116.269 15.8026 118.266 17.2636C117.849 17.8301 117.461 18.3668 117.044 18.9035C116.507 19.3209 115.97 19.7383 115.404 20.1259C113.913 18.0984 112.333 15.8026 111.617 13.4769ZM117.044 24.986C117.461 25.5227 117.879 26.0594 118.296 26.6259C116.298 28.0869 114.032 29.6969 111.677 30.3827C112.392 27.9974 114.003 25.6718 115.434 23.7337C115.97 24.1809 116.507 24.5685 117.044 24.986ZM106.966 17.9792C106.399 17.8897 105.803 17.8599 105.266 17.8599C104.014 17.8599 102.851 18.0686 101.778 18.4264C103.12 16.1902 104.879 14.2223 107.264 13.4471C107.92 13.2384 108.576 13.1191 109.292 13.1191C109.47 13.1191 109.679 13.1191 109.858 13.1489C110.454 15.892 112.184 18.486 113.764 20.6924C113.704 20.6626 113.615 20.603 113.555 20.5732C111.23 19.142 109.083 18.3071 106.966 17.9792ZM109.828 30.7703C109.649 30.7703 109.441 30.8001 109.262 30.8001C108.576 30.8001 107.89 30.6809 107.234 30.4722C104.849 29.6671 103.09 27.6993 101.748 25.4929C102.851 25.8507 103.984 26.0593 105.237 26.0593C105.803 26.0593 106.37 26.0296 106.936 25.9401C109.053 25.6121 111.2 24.7773 113.496 23.4057C113.555 23.3759 113.645 23.3163 113.704 23.2865C112.154 25.4034 110.425 27.9974 109.828 30.7703ZM118.684 28.5341C117.312 30.83 116.507 32.9469 116.149 35.0639C115.851 36.9721 116.06 38.7014 116.567 40.2817C114.331 38.94 112.363 37.1808 111.587 34.7955C111.289 33.9308 111.23 33.0662 111.289 32.2015C114.032 31.6052 116.626 29.8758 118.833 28.2658C118.773 28.3552 118.714 28.4447 118.684 28.5341ZM118.296 23.8828L118.147 23.7337L116.358 21.9447L118.147 20.1259L118.266 20.0067L120.085 18.2177L121.874 20.0067L122.023 20.1558L123.842 21.9745L122.053 23.7635L121.904 23.9126L120.115 25.7016L118.296 23.8828ZM128.612 34.7955C127.807 37.1808 125.869 38.94 123.633 40.2817C124.14 38.7014 124.379 36.9721 124.051 35.0639C123.693 32.9469 122.888 30.8001 121.516 28.5341C121.457 28.4447 121.427 28.385 121.367 28.2956C123.544 29.8758 126.138 31.6052 128.911 32.2015C129 33.0662 128.911 33.9308 128.612 34.7955ZM133.204 25.8805C133.801 25.9699 134.367 26.0295 134.963 26.0295C136.216 26.0295 137.349 25.8208 138.452 25.463C137.11 27.6992 135.351 29.6671 132.966 30.4424C132.31 30.6511 131.654 30.7703 130.968 30.7703C130.789 30.7703 130.58 30.7703 130.401 30.7405C129.775 27.9676 128.076 25.3736 126.466 23.197C126.555 23.2566 126.615 23.2864 126.704 23.3461C128.97 24.7176 131.087 25.5525 133.204 25.8805ZM134.963 17.8301C134.397 17.8301 133.801 17.8897 133.204 17.9792C131.087 18.3071 128.94 19.142 126.674 20.5135C126.585 20.5732 126.525 20.603 126.436 20.6626C128.016 18.486 129.746 15.8622 130.372 13.1191C130.551 13.1191 130.759 13.0893 130.938 13.0893C131.624 13.0893 132.31 13.2086 132.936 13.4173C135.321 14.2223 137.08 16.1604 138.422 18.3966C137.349 18.0686 136.216 17.8301 134.963 17.8301Z" fill="white"/>
</svg>
